<svg xmlns="http://www.w3.org/2000/svg" width="491" height="76" viewBox="0 0 491 76" version="1.1"><path d="M 120.571 9.571 C 117.123 13.020, 119.701 19, 124.637 19 C 128.910 19, 131 17.248, 131 13.665 C 131 11.869, 130.460 9.860, 129.800 9.200 C 128.088 7.488, 122.427 7.716, 120.571 9.571 M 16.420 14.411 C 10.380 16.302, 6.291 19.775, 3.493 25.389 C 0.207 31.983, 0.220 38.042, 3.533 44.691 C 6.627 50.900, 11.702 54.624, 19.219 56.200 C 26.231 57.671, 34.642 56.014, 39.068 52.289 L 42.113 49.727 39.369 46.864 C 36.109 43.460, 35.583 43.396, 32.273 46 C 29.178 48.435, 22.197 48.670, 17.967 46.483 C 12.407 43.608, 10.193 34.396, 13.517 27.967 C 16.716 21.782, 27.295 19.853, 32.768 24.458 L 35.689 26.916 38.859 23.646 L 42.028 20.375 39.634 18.126 C 34.802 13.586, 24.381 11.919, 16.420 14.411 M 51.686 24.017 C 46.652 25.528, 45.830 26.771, 47.602 30.197 C 48.838 32.587, 49.592 33.060, 51.326 32.533 C 58.950 30.217, 66 31.178, 66 34.535 C 66 35.673, 64.536 36, 59.450 36 C 49.422 36, 45 39.060, 45 46 C 45 50.184, 46.457 52.668, 49.980 54.490 C 53.431 56.274, 61.244 56.475, 64.268 54.857 C 65.871 53.999, 66.500 53.999, 66.786 54.857 C 67.004 55.513, 69.314 56, 72.207 56 L 77.247 56 76.806 44.250 C 76.301 30.782, 74.981 27.168, 69.643 24.635 C 65.961 22.888, 56.529 22.563, 51.686 24.017 M 93.001 24.123 C 86.822 26.587, 83 32.579, 83 39.802 C 83 45.178, 85.461 49.806, 90.176 53.298 C 93.135 55.490, 100.984 56.601, 106.372 55.590 C 109.711 54.964, 116 50.191, 116 48.284 C 116 47.782, 114.393 46.604, 112.430 45.668 C 108.996 44.031, 108.761 44.043, 106.295 45.983 C 100.654 50.420, 93 46.687, 93 39.500 C 93 32.336, 101.290 28.290, 106.105 33.105 C 108.162 35.162, 108.297 35.170, 112.105 33.453 C 116.482 31.479, 116.580 31.273, 114.535 28.353 C 111.266 23.686, 99.763 21.427, 93.001 24.123 M 120 39.500 L 120 56 125 56 L 130 56 130 39.500 L 130 23 125 23 L 120 23 120 39.500 M 139 39.500 L 139 56 143.909 56 L 148.818 56 149.159 45.410 C 149.472 35.697, 149.696 34.662, 151.861 32.910 C 154.661 30.644, 157.881 30.462, 160.559 32.418 C 162.238 33.644, 162.546 35.333, 162.838 44.918 L 163.177 56 168.088 56 L 173 56 173 44.968 C 173 33.262, 171.924 28.969, 168.148 25.604 C 165.509 23.253, 157.312 22.347, 152.827 23.911 C 150.602 24.686, 149.409 24.726, 149.177 24.031 C 148.988 23.464, 146.621 23, 143.917 23 L 139 23 139 39.500 M 187.020 24.752 C 181.845 27.352, 179 32.228, 179 38.500 C 179 44.772, 181.845 49.648, 187.020 52.248 C 191.373 54.436, 199.784 54.540, 202.777 52.443 C 204.863 50.983, 205 51.016, 205 52.989 C 205 54.145, 203.841 56.249, 202.425 57.666 C 200.203 59.888, 199.202 60.178, 195.108 59.784 C 192.499 59.534, 188.926 58.611, 187.168 57.734 L 183.970 56.138 181.947 60.104 L 179.924 64.070 183.712 65.785 C 186.390 66.997, 190.138 67.500, 196.500 67.500 C 204.397 67.500, 205.912 67.206, 208.863 65.101 C 214.255 61.256, 215 58.150, 215 39.532 L 215 23 210.500 23 C 207.133 23, 206 23.384, 206 24.526 C 206 25.893, 205.694 25.893, 203.050 24.526 C 199.105 22.486, 191.311 22.596, 187.020 24.752 M 191.635 33.073 C 186.196 37.351, 189.786 46, 197 46 C 198.502 46, 200.916 45.067, 202.365 43.927 C 207.804 39.649, 204.214 31, 197 31 C 195.498 31, 193.084 31.933, 191.635 33.073 M 56.582 43.316 C 54.123 45.114, 54.951 48.259, 58.182 49.395 C 61.743 50.647, 66 47.969, 66 44.477 C 66 42.275, 65.578 42, 62.191 42 C 60.096 42, 57.572 42.592, 56.582 43.316" stroke="none" fill="#040404" fill-rule="evenodd"/><path d="M 248.275 13.971 C 243.369 15.137, 239.991 17.777, 238.336 21.739 C 235.289 29.030, 239.402 35.752, 248.295 38.019 C 257.187 40.285, 260.355 41.563, 261.408 43.309 C 264.144 47.841, 251.670 49.820, 243.931 46.081 L 239.958 44.161 237.939 48.119 L 235.920 52.077 240.710 54.246 C 246.881 57.041, 259.841 57.302, 264.662 54.728 C 271.138 51.270, 274.009 43.623, 270.967 37.938 C 269.626 35.433, 263.915 32.598, 257 31.004 C 253.975 30.306, 250.713 29.329, 249.750 28.833 C 247.731 27.791, 247.454 24.946, 249.200 23.200 C 250.875 21.525, 259.350 21.701, 263.654 23.500 C 265.629 24.325, 267.342 25, 267.462 25 C 267.582 25, 268.285 23.166, 269.025 20.924 C 270.613 16.113, 270.179 15.641, 262.701 14.032 C 257.286 12.868, 252.996 12.849, 248.275 13.971 M 278.171 35.984 L 278.500 48.967 281.681 52.146 C 284.291 54.753, 285.848 55.406, 290.344 55.779 C 294.070 56.088, 296.815 55.740, 298.913 54.693 C 301.529 53.389, 302 53.371, 302 54.577 C 302 55.618, 303.342 56, 307 56 L 312 56 312 39.500 L 312 23 306.500 23 L 301 23 301 33.500 C 301 42.667, 300.746 44.254, 299 46 C 296.443 48.557, 292.557 48.557, 290 46 C 288.254 44.254, 288 42.667, 288 33.500 L 288 23 282.921 23 L 277.841 23 278.171 35.984 M 318 27 L 318 31 326.029 31 L 334.059 31 326.029 40.212 C 319.486 47.719, 318 50.032, 318 52.712 L 318 56 333 56 L 348 56 348 52 L 348 48 339.414 48 L 330.828 48 338.914 38.600 C 345.269 31.213, 347 28.537, 347 26.100 L 347 23 332.500 23 L 318 23 318 27 M 353.171 35.984 L 353.500 48.967 356.681 52.146 C 359.291 54.753, 360.848 55.406, 365.344 55.779 C 369.070 56.088, 371.815 55.740, 373.913 54.693 C 376.529 53.389, 377 53.371, 377 54.577 C 377 55.618, 378.342 56, 382 56 L 387 56 387 39.500 L 387 23 381.500 23 L 376 23 376 33.500 C 376 42.667, 375.746 44.254, 374 46 C 371.443 48.557, 367.557 48.557, 365 46 C 363.254 44.254, 363 42.667, 363 33.500 L 363 23 357.921 23 L 352.841 23 353.171 35.984 M 394 39.500 L 394 56 399 56 L 404 56 404 46.135 C 404 37.669, 404.294 35.896, 406.073 33.635 C 408.367 30.718, 411.597 30.254, 414.559 32.418 C 416.238 33.644, 416.546 35.333, 416.838 44.918 L 417.177 56 422.088 56 L 427 56 427 45.674 C 427 36.174, 427.185 35.175, 429.314 33.174 C 432.040 30.614, 435.233 30.376, 437.429 32.571 C 438.665 33.808, 439 36.470, 439 45.071 L 439 56 444.500 56 L 450 56 449.994 45.750 C 449.988 33.782, 448.953 29.244, 445.488 25.989 C 442.025 22.736, 432.996 22.087, 427.944 24.728 C 424.520 26.518, 424.279 26.520, 421.444 24.799 C 418.082 22.757, 409.996 22.397, 406.732 24.143 C 405.129 25.001, 404.500 25.001, 404.214 24.143 C 403.997 23.492, 401.717 23, 398.917 23 L 394 23 394 39.500 M 464 25.041 C 457.983 28.665, 456.500 31.560, 456.500 39.684 C 456.500 46.292, 456.741 47.125, 459.500 50.057 C 463.530 54.341, 467.782 56, 474.733 56 C 480.286 56, 486.963 53.635, 487.691 51.410 C 487.855 50.909, 486.975 49.233, 485.736 47.684 C 483.550 44.952, 483.394 44.914, 480.492 46.428 C 478.846 47.286, 476.098 47.990, 474.385 47.994 C 471.341 48, 466 44.773, 466 42.927 C 466 42.406, 471.535 42, 478.628 42 L 491.256 42 490.577 37.755 C 489.040 28.142, 484.038 23.707, 474.218 23.248 C 468.786 22.994, 466.830 23.337, 464 25.041 M 468.413 32.323 C 466.811 33.702, 465.783 35.114, 466.130 35.461 C 466.476 35.808, 470.016 35.959, 473.997 35.796 L 481.235 35.500 479.368 33.253 C 476.421 29.708, 471.898 29.323, 468.413 32.323" stroke="none" fill="#1c3cb4" fill-rule="evenodd"/></svg>